<svg height="16" viewBox="0 0 15 16" width="15" xmlns="http://www.w3.org/2000/svg" xmlns:xlink="http://www.w3.org/1999/xlink"><mask id="a" fill="#fff"><path d="m-.78999336 9.0605406h11.98999466l-3.63666508 3.6399984c-.02782099.0279943-.0439151.0655472-.04499998.1049999v1.7016659c.00018677.0607403.03698605.1153724.09320432.1383708.05621828.0229984.12075705.0098228.16346223-.0333708l6.17999721-6.17999726c.0281116-.02779732.0442582-.06547269.045-.10499995-.0001219-.04014473-.0163306-.07856536-.045-.10666662l-6.17833054-6.17666389c-.04313677-.042696-.10757374-.05556383-.16380049-.03271038-.05622676.02285346-.0934147.0770269-.09453273.13771033v1.7016659c-.00040188.03976457.01592779.07786713.04499998.10499996l3.63333168 3.6333317h-11.98666126c-.05583172-.00044847-.10950698.02153242-.14898724.06101267-.03948025.03948026-.06146114.09315552-.06101267.14898724v1.05833285c.00272695.11375289.09621824.20427621.20999991.20333325z" fill="#fff" fill-rule="evenodd"/></mask><g fill="#fff" mask="url(#a)" transform="translate(1)"><path d="m0 0h120v120h-120z" transform="translate(-53 -52)"/></g></svg>