<svg height="30" viewBox="0 0 30 30" width="30" xmlns="http://www.w3.org/2000/svg" xmlns:xlink="http://www.w3.org/1999/xlink"><mask id="a" fill="#fff"><path d="m24.8272493 29.662069h-19.99242966c-2.66848292-.004134-4.83068565-2.1663367-4.83481964-4.8348197v-19.99242966c.00413399-2.66848292 2.16633672-4.83068565 4.83481964-4.83481964h19.99242966c2.668483.00413399 4.8306857 2.16633672 4.8348197 4.83481964v19.99242966c-.004134 2.668483-2.1663367 4.8306857-4.8348197 4.8348197zm-19.99242966-27.77769054c-1.63362993 0-2.95794866 1.32431873-2.95794866 2.95794867v19.98492217c0 1.63363 1.32431873 2.9579487 2.95794866 2.9579487h19.99242966c1.63363 0 2.9579487-1.3243187 2.9579487-2.9579487v-19.99242966c0-1.63362993-1.3243187-2.95794866-2.9579487-2.95794866zm9.68931826 19.92251814c-3.8317135 0-6.937931-3.1062176-6.937931-6.9379311s3.1062175-6.93793102 6.937931-6.93793102 6.9379311 3.10621752 6.9379311 6.93793102c-.0023029 3.8307593-3.1071718 6.9356282-6.9379311 6.9379311zm0-11.7886386c-2.6789717 0-4.85070747 2.1717357-4.85070747 4.8507075s2.17173577 4.8507075 4.85070747 4.8507075c2.6789718 0 4.8507075-2.1717357 4.8507075-4.8507075-.0023017-2.6780178-2.1726897-4.8484058-4.8507075-4.8507075zm8.5379311-.79067179c-1.500691 0-2.7172414-1.21655041-2.7172414-2.71724138 0-1.50069098 1.2165504-2.71724138 2.7172414-2.71724138 1.5006909 0 2.7172413 1.2165504 2.7172413 2.71724138 0 1.50069097-1.2165504 2.71724138-2.7172413 2.71724138z" fill="#fff" fill-rule="evenodd"/></mask><g fill="#1b1c1c" mask="url(#a)"><path d="m0 0h240v240h-240z" transform="translate(-106 -130)"/></g></svg>