<svg height="11" viewBox="0 0 15 11" width="15" xmlns="http://www.w3.org/2000/svg" xmlns:xlink="http://www.w3.org/1999/xlink"><mask id="a" fill="#fff"><path d="m7.18085714 9.94414286c.231 0 .41885715.18928574.41885715.42214284 0 .2328572-.188.4224286-.419.4224286h-6.76171429c-.112 0-.21728571-.044-.29628571-.1237143-.07914286-.0798571-.12271429-.1855714-.12271429-.2985714 0-.2328572.188-.42228574.419-.42228574zm3.19999996-4.93785715c.231 0 .4191429.18928572.419.42214286 0 .23285714-.188.42242857-.419.42242857h-9.9618571c-.112 0-.21728571-.044-.29628571-.12371428-.07914286-.07985715-.12271429-.18557143-.12271429-.29857143 0-.23285714.188-.42228572.419-.42228572zm3.2001429-4.93785714c.231 0 .4188571.18928572.4188571.42214286s-.188.42242857-.419.42242857h-13.1618571c-.112 0-.21728571-.044-.29628571-.12371429-.07914286-.07985714-.12271429-.18557142-.12271429-.29857142 0-.23285715.188-.42228572.419-.42228572z" fill="#fff" fill-rule="evenodd"/></mask><g fill="#fff" mask="url(#a)"><path d="m0 0h120v120h-120z" transform="translate(-53 -54)"/></g></svg>