<svg height="43" viewBox="0 0 43 43" width="43" xmlns="http://www.w3.org/2000/svg" xmlns:xlink="http://www.w3.org/1999/xlink"><mask id="a" fill="#fff"><path d="m13.9241818 20.7846364-.8821515.8808484-12.39051515-12.38921207 8.62475758-8.62475758 12.38790907 12.38790905-.8821515.8821516-11.50575757-11.50575762-6.86045455 6.86045455 2.07312121 2.07181817 2.20863637-2.20863635.88215151.88215155-2.20863636 2.2099394 2.40278788 2.4014848 3.43087881-3.4282727.8821515.8821515-3.4308788 3.4295757 2.4027879 2.4014849 2.2099394-2.2086364.8808485.8821515-2.2086364 2.2099394zm16.0337879.5485757 12.3905151 12.3905152-8.6247575 8.6247575-12.3879091-12.387909.8821515-.8821516 1.9819091 1.9806061 2.2086364-2.2086364.8821515.8808485-2.2086364 2.2099394 2.4014849 2.4027879 3.4295757-3.4308788.8821515.8821515-3.4282727 3.4308788 2.4014848 2.4027879 2.2099394-2.2086364.8821516.8821515-2.2086364 2.2086364 2.0718182 2.0731212 6.8604545-6.8604545-11.5096666-11.5083637zm10.1375758-13.03681816c.8652121-.86521212.863909-2.27248485 0-3.13639394l-2.2542425-2.25424242c-.8391515-.83915152-2.2985454-.83784849-3.1363939 0l-28.53896971 28.53636362c-.05472727.0547273-.08209091.126394-.11336363.1954546l-.01563637-.0065152-3.55596969 8.0657576c-.10424243.2358485-.05212122.5107879.13030303.6932121.11987879.1198788.27884848.1824242.44042424.1824242.08469697 0 .17069697-.0169393.25148485-.0534242l8.06575758-3.5559697-.001303-.0026061c.0690606-.0299697.1355151-.0716666.1902424-.1276969zm-4.5097879-4.50978788c.3674545-.36354545 1.0046363-.36615151 1.3720909 0l2.2555454 2.25554546c.3778788.37787878.3778788.99421212 0 1.3720909l-2.0952727 2.09527273-3.6276364-3.62763636zm-26.79812124 32.95103034-2.52527272-2.5252728.69842424-1.5818788 2.66339394.7466364.74663638 2.663394zm-3.06472727-1.3004243 1.84118182 1.8411818-3.29275758 1.4515758zm5.00754541-2.7350606c-.0586363-.2097879-.2228181-.3739697-.432606-.432606l-2.49660608-.6997273 24.80709088-24.8057879 3.6276364 3.6289394-24.8057879 24.8044848z" fill="#fff" fill-rule="evenodd"/></mask><g fill="#1b1c1c" mask="url(#a)"><path d="m0 0h304v304h-304z" transform="translate(-139.117647 -146.705882)"/></g></svg>