<svg height="43" viewBox="0 0 26 43" width="26" xmlns="http://www.w3.org/2000/svg" xmlns:xlink="http://www.w3.org/1999/xlink"><mask id="a" fill="#fff"><path d="m21.3857702.03507394h-17.34178412c-2.15317987 0-3.9047593 1.76195085-3.9047593 3.92759416v3.90924462 22.77575958 8.201391c0 2.1656455 1.75157938 3.9275959 3.9047593 3.9275959h17.34178412c2.1531807 0 3.9047575-1.7619504 3.9047575-3.9275959v-8.2013912-22.77575961-3.90924462c0-2.16564303-1.7515768-3.92759393-3.9047575-3.92759393zm-19.94019499 8.4938325h1.40177378v21.46176996h-1.40177378zm19.94019499 32.93376116h-17.34178412c-1.43264733 0-2.59841087-1.1724513-2.59841087-2.6136045v-7.5443988h2.05494887c.36077746 0 .65317509-.2941076.65317509-.6569922v-22.77575961c0-.36288727-.29239763-.65699483-.65317509-.65699483h-2.05494887v-3.25224975c0-1.44115281 1.16576354-2.61360538 2.59841087-2.61360538h17.34178412c1.4326447 0 2.5984091 1.17245257 2.5984091 2.61360538v3.25224975h-2.0552041c-.3607748 0-.6531724.29410756-.6531724.65699483v22.77575961c0 .3628846.2923976.6569922.6531724.6569922h2.0552041v7.5443988c0 1.4411532-1.1657644 2.6136045-2.5984091 2.6136045zm2.5984091-11.4719912h-1.4020281v-21.46176996h1.4020281zm-7.746751 7.1111921c.3607766 0 .6531742.2941075.6531742.6569957 0 .3628881-.2923976.6569957-.6531742.6569957h-6.5031701c-.36077658 0-.65317421-.2941076-.65317421-.6569957 0-.3628882.29239763-.6569957.65317421-.6569957zm3.245204-29.88695084h-13.53576608c-.36077658 0-.65317422.29410756-.65317422.65699483v22.77575961c0 .3628846.29239764.6569922.65317422.6569922h13.53576608c.3607783 0 .653176-.2941076.653176-.6569922v-22.77575961c0-.36288727-.2923977-.65699483-.653176-.65699483zm-.6531725 22.77575874h-12.22941937v-21.46176996h12.22941937z" fill="#fff" fill-rule="evenodd"/></mask><g fill="#1b1c1c" mask="url(#a)"><path d="m0 0h270v272h-270z" transform="translate(-128.25 -131.263158)"/></g></svg>